<?xml version="1.0" encoding="UTF-8"?><svg width="60px" height="26px" viewBox="0 0 60 26" version="1.1" xmlns="http://www.w3.org/2000/svg" xmlns:xlink="http://www.w3.org/1999/xlink"><!--Generator: Sketch 60.1 (88133) - https://sketch.com--><title>app-platforms</title><desc>Created with Sketch.</desc><g id="app-platforms" stroke="none" stroke-width="1" fill="none" fill-rule="evenodd"><path d="M14.1866667,2.6 C13.8933333,3.32 13.4533333,3.98666667 12.8666667,4.6 C12.3066667,5.12 11.7866667,5.46666667 11.2933333,5.64 C10.92,5.73333333 10.44,5.81333333 9.82666667,5.86666667 C9.85333333,4.44 10.2133333,3.2 10.9333333,2.16 C11.6533333,1.10666667 12.84,0.386666667 14.52,0 C14.56,0.133333333 14.5866667,0.253333333 14.6,0.346666667 L14.6133333,0.6 C14.6133333,1.22666667 14.4666667,1.89333333 14.1866667,2.6 L14.1866667,2.6 Z M12.2666667,5.93333333 C13.24,5.6 14.0666667,5.44 14.76,5.44 C15.8933333,5.44 16.92,5.74666667 17.8266667,6.36 C18.0666667,6.56 18.3066667,6.77333333 18.56,7 C18.8133333,7.24 19.0533333,7.49333333 19.3066667,7.81333333 C18.56,8.46666667 18.0133333,9.04 17.68,9.54666667 C17.04,10.4266667 16.7333333,11.4266667 16.7333333,12.52 C16.7333333,13.72 17.0666667,14.8 17.7333333,15.76 C18.3866667,16.7066667 19.1466667,17.3066667 20,17.5733333 C19.8133333,18.16 19.5733333,18.76 19.28,19.36 C19,19.96 18.6533333,20.5733333 18.2533333,21.2 C17.0266667,23.0666667 15.8,24 14.56,24 C14.04,24 13.36,23.84 12.52,23.5333333 C11.6933333,23.2533333 10.9866667,23.1066667 10.3733333,23.1066667 C9.74666667,23.1066667 9.05333333,23.2533333 8.30666667,23.56 C7.50666667,23.8533333 6.88,24 6.41333333,24 C4.97333333,24 3.53333333,22.7733333 2.12,20.3333333 C0.706666667,17.8533333 0,15.44 0,13.04 C0,10.84 0.533333333,9.04 1.61333333,7.64 C2.69333333,6.25333333 4.05333333,5.54666667 5.70666667,5.54666667 C6.41333333,5.54666667 7.26666667,5.69333333 8.25333333,5.98666667 C9.26666667,6.28 9.92,6.42666667 10.2266667,6.42666667 C10.6133333,6.42666667 11.28,6.25333333 12.2666667,5.93333333 L12.2666667,5.93333333 Z" id="Shape" fill="#8899AA"/><path d="M51.9038047,15.7007925 C51.214975,15.7007925 50.6546509,15.1368358 50.6546509,14.4440218 C50.6546509,13.7512078 51.214975,13.1876581 51.9038047,13.1876581 C52.5926584,13.1876581 53.1529586,13.7512078 53.1529586,14.4440218 C53.1529586,15.1368358 52.5926584,15.7007925 51.9038047,15.7007925 M38.0962021,15.7007925 C37.4073461,15.7007925 36.8470483,15.1368358 36.8470483,14.4440218 C36.8470483,13.7512078 37.4073461,13.1876581 38.0962021,13.1876581 C38.7850318,13.1876581 39.3453537,13.7512078 39.3453537,14.4440218 C39.3453537,15.1368358 38.7850307,15.7007925 38.0962021,15.7007925 M52.3518301,8.13242911 L54.8485053,3.78347431 C54.9916354,3.53350505 54.9064844,3.21421679 54.6583541,3.06986286 C54.4102273,2.92591712 54.092364,3.01155026 53.9488383,3.26111017 L51.420934,7.66511427 C49.4878001,6.77778964 47.3166858,6.2835636 44.9999891,6.2835636 C42.6833176,6.2835636 40.5122033,6.77778964 38.5790695,7.66511427 L36.0511674,3.26111017 C35.9076394,3.01155026 35.5897773,2.92591712 35.3416482,3.06986286 C35.0935202,3.21421679 35.0079748,3.53350505 35.1515005,3.78347431 L37.6481733,8.13242911 C33.3610771,10.4775616 30.4289479,14.8428283 30,20 L60,20 C59.5706588,14.8428271 56.6385296,10.4775616 52.3518301,8.13242911" id="Shape" fill="#8899AA" fill-rule="nonzero"/></g></svg>